<svg width="146" height="32" viewBox="0 0 146 32" fill="none" xmlns="http://www.w3.org/2000/svg">
<path d="M13.4603 3.93332C10.9197 3.93332 8.69949 4.44462 6.79975 5.46722C4.87712 6.48982 3.40082 7.9101 2.37084 9.72805C1.34086 11.546 0.825867 13.6139 0.825867 15.9318C0.825867 18.227 1.34086 20.2949 2.37084 22.1356C3.40082 23.9763 4.87712 25.4306 6.79975 26.4987C8.69949 27.544 10.9197 28.0667 13.4603 28.0667H15.9666V3.93332H13.4603ZM14.1469 21.3175C12.4303 21.3175 11.0684 20.8517 10.0614 19.92C9.05426 18.9883 8.55072 17.6589 8.55072 15.9318C8.55072 14.2048 9.05426 12.8754 10.0614 11.9437C11.0684 11.012 12.4303 10.5461 14.1469 10.5461H15.9666V21.3175H14.1469Z" fill="#219653"/>
<path d="M26.0891 3.93332C28.6297 3.93332 30.8499 4.44462 32.7496 5.46722C34.6722 6.48982 36.1485 7.9101 37.1785 9.72805C38.2085 11.546 38.7235 13.6139 38.7235 15.9318C38.7235 18.227 38.2085 20.2949 37.1785 22.1356C36.1485 23.9763 34.6722 25.4306 32.7496 26.4987C30.8499 27.544 28.6297 28.0667 26.0891 28.0667H23.5828V3.93332H26.0891ZM25.4024 21.3175C27.1191 21.3175 28.4809 20.8517 29.488 19.92C30.4951 18.9883 30.9986 17.6589 30.9986 15.9318C30.9986 14.2048 30.4951 12.8754 29.488 11.9437C28.4809 11.012 27.1191 10.5461 25.4024 10.5461H23.5828V21.3175H25.4024Z" fill="#219653"/>
<rect x="13.1525" y="18.085" width="4.18026" height="13.1525" rx="2.09013" transform="rotate(-90 13.1525 18.085)" fill="#219653"/>
<path d="M44.4739 16.2814C44.4739 14.8676 44.7662 13.6101 45.3507 12.509C45.9489 11.3942 46.7917 10.531 47.8793 9.91925C48.9668 9.29391 50.2175 8.98124 51.6313 8.98124C53.4258 8.98124 54.9348 9.46384 56.1582 10.429C57.3817 11.3806 58.1702 12.6789 58.5237 14.3238H54.2211C53.9628 13.78 53.6025 13.3654 53.1403 13.0799C52.6917 12.7945 52.1683 12.6517 51.5702 12.6517C50.6457 12.6517 49.9049 12.9848 49.3475 13.6509C48.8037 14.3034 48.5318 15.1803 48.5318 16.2814C48.5318 17.3961 48.8037 18.2866 49.3475 18.9527C49.9049 19.6052 50.6457 19.9315 51.5702 19.9315C52.1683 19.9315 52.6917 19.7887 53.1403 19.5033C53.6025 19.2178 53.9628 18.8032 54.2211 18.2594H58.5237C58.1702 19.9043 57.3817 21.2094 56.1582 22.1746C54.9348 23.1262 53.4258 23.602 51.6313 23.602C50.2175 23.602 48.9668 23.2961 47.8793 22.6843C46.7917 22.059 45.9489 21.1958 45.3507 20.0946C44.7662 18.9799 44.4739 17.7088 44.4739 16.2814ZM67.3086 23.6427C65.9627 23.6427 64.7257 23.3301 63.5973 22.7047C62.469 22.0658 61.5718 21.189 60.9056 20.0742C60.2531 18.9459 59.9269 17.6748 59.9269 16.261C59.9269 14.8472 60.2531 13.5829 60.9056 12.4682C61.5718 11.3399 62.469 10.463 63.5973 9.83768C64.7257 9.21234 65.9627 8.89967 67.3086 8.89967C68.668 8.89967 69.9051 9.21234 71.0198 9.83768C72.1482 10.463 73.0386 11.3399 73.6911 12.4682C74.3437 13.5829 74.6699 14.8472 74.6699 16.261C74.6699 17.6748 74.3437 18.9459 73.6911 20.0742C73.0386 21.189 72.1482 22.0658 71.0198 22.7047C69.8915 23.3301 68.6544 23.6427 67.3086 23.6427ZM67.3086 19.9315C68.3282 19.9315 69.1302 19.5984 69.7148 18.9323C70.3129 18.2662 70.612 17.3757 70.612 16.261C70.612 15.1191 70.3129 14.2219 69.7148 13.5693C69.1302 12.9032 68.3282 12.5701 67.3086 12.5701C66.2754 12.5701 65.4666 12.9032 64.882 13.5693C64.2974 14.2219 64.0052 15.1191 64.0052 16.261C64.0052 17.3893 64.2974 18.2866 64.882 18.9527C65.4666 19.6052 66.2754 19.9315 67.3086 19.9315ZM89.7823 23.5H85.7855L80.4633 15.4657V23.5H76.4666V9.12398H80.4633L85.7855 17.2602V9.12398H89.7823V23.5ZM105.375 23.5H101.378L96.0557 15.4657V23.5H92.0589V9.12398H96.0557L101.378 17.2602V9.12398H105.375V23.5ZM111.648 12.3254V14.6705H116.236V17.7088H111.648V20.2985H116.848V23.5H107.651V9.12398H116.848V12.3254H111.648ZM118.333 16.2814C118.333 14.8676 118.626 13.6101 119.21 12.509C119.808 11.3942 120.651 10.531 121.739 9.91925C122.826 9.29391 124.077 8.98124 125.491 8.98124C127.285 8.98124 128.794 9.46384 130.018 10.429C131.241 11.3806 132.03 12.6789 132.383 14.3238H128.081C127.822 13.78 127.462 13.3654 127 13.0799C126.551 12.7945 126.028 12.6517 125.43 12.6517C124.505 12.6517 123.764 12.9848 123.207 13.6509C122.663 14.3034 122.391 15.1803 122.391 16.2814C122.391 17.3961 122.663 18.2866 123.207 18.9527C123.764 19.6052 124.505 19.9315 125.43 19.9315C126.028 19.9315 126.551 19.7887 127 19.5033C127.462 19.2178 127.822 18.8032 128.081 18.2594H132.383C132.03 19.9043 131.241 21.2094 130.018 22.1746C128.794 23.1262 127.285 23.602 125.491 23.602C124.077 23.602 122.826 23.2961 121.739 22.6843C120.651 22.059 119.808 21.1958 119.21 20.0946C118.626 18.9799 118.333 17.7088 118.333 16.2814ZM145.104 9.12398V12.3051H141.27V23.5H137.273V12.3051H133.48V9.12398H145.104Z" fill="#1D1819"/>
</svg>
